# xmcd
#
# Track frame offsets: 
#        150
#        22432
#        42376
#        66345
#        91757
#        121410
#        145912
#        173953
#        200272
#        236495
#        266185
#        291901
#
# Disc length: 4131 seconds
#
# Revision: 1
# Processed by: cddbd v1.5.2PL0 Copyright (c) Steve Scherf et al.
# Submitted via: ExactAudioCopyFreeDBPlugin 1.0
#
DISCID=ba10210c
DTITLE=Dianne Reeves - Beautiful Life
DYEAR=2013
DGENRE=Jazz
TTITLE0=I Want You
TTITLE1=Feels So Good (Lifted)
TTITLE2=Dreams
TTITLE3=Satiated (Been Waiting)
TTITLE4=Waiting In Vain
TTITLE5=32 Hours
TTITLE6=Cold
TTITLE7=Wild Rose
TTITLE8=Stormy Weather
TTITLE9=Tango
TTITLE10=Unconditional Love (For You)
TTITLE11=Long Road Ahead
EXTD=YEAR: 2013
EXTT0=
EXTT1=
EXTT2=
EXTT3=
EXTT4=
EXTT5=
EXTT6=
EXTT7=
EXTT8=
EXTT9=
EXTT10=
EXTT11=
PLAYORDER=
